<?xml version="1.0" encoding="utf-8"?>
<!-- Generator: Adobe Illustrator 26.0.1, SVG Export Plug-In . SVG Version: 6.00 Build 0)  -->
<svg version="1.1" id="Layer_1" xmlns="http://www.w3.org/2000/svg" xmlns:xlink="http://www.w3.org/1999/xlink" x="0px" y="0px"
	 viewBox="0 0 652 184" style="enable-background:new 0 0 652 184;" xml:space="preserve">
<style type="text/css">
	.st0{fill:#382656;}
	.st1{fill:#5EB6E4;}
</style>
<path class="st0" d="M591.9,45.4c-131,6.3-200.7-65.2-318.6-25.5C182,50.6,158.4,51.6,88.1,43.2C165,63.7,191.7,47,274.9,20.9
	C356-4.6,447.7,58,591.9,45.4"/>
<path class="st1" d="M555.6,55c-79.7,1-105.3-34.5-221.2-22.9C258,39.8,162.1,78.2,51.7,59c95.5,21,197-1.4,272.8-12.7
	C450.8,27.3,497.7,59.8,555.6,55"/>
<path class="st0" d="M577.5,54.8C385,86.5,253.7,29.4,161.1,28.9c-43-0.3-55.9,6.6-87.3,14.4c30.4-6,45.7-12.4,87.8-10.9
	C231.6,34.8,311.6,103.4,577.5,54.8"/>
<path class="st0" d="M66,150.2c-7.6,6.1-16,6.6-20.7,6.6c-25.6,0-37.6-19.9-37.6-40.7c0-21.8,13.1-41.4,38.4-41.4
	c9.2,0,15.9,2.9,20.4,6.7c6.1,5.2,7.4,11.1,7.9,13.8c-0.8,0.3-2.1,1-2.9,1.3c-2.4-3.8-8.9-14.3-24.5-14.3c-19,0-28.2,14.5-28.2,33.5
	c0,21.3,12.8,33.5,28.3,33.5c15.4,0,22.7-11,24.9-14.3c0.9,0.3,2.2,0.9,3,1.2C74,139.3,72.2,145,66,150.2"/>
<path class="st0" d="M129.1,147.2c-2.7,3.5-9.2,9.5-21.4,9.5c-4.5,0-11.4-0.9-17.6-6c-8.3-7.2-9-18.1-9-23.3
	c0-21.5,12.6-31.2,27.5-31.2c16.4,0,26.4,12.3,26.4,29.4C135.1,135.2,132.8,142.4,129.1,147.2 M108.2,102.5
	c-12.2,0-16.5,12-16.5,23.7c0,7.2,1.3,12,2.2,14c2.8,7.4,8.6,10.5,14.2,10.5c8.6,0,16.4-6.5,16.4-24.4
	C124.5,113.8,119.6,102.5,108.2,102.5"/>
<path class="st0" d="M194.2,98.6v55.9h-10v-7c-1.8,2.6-6.2,9.3-17.5,9.3c-6.8,0-12.3-2.7-15.2-6.2c-3.3-4.1-3.8-8.9-3.8-15.1V98.6
	h10v32.6c0,6.1,0.2,9.8,1.5,12.5c1.4,2.9,4.7,6.1,10.5,6.1c1.2,0,8.3,0,14.5-7.5V98.6L194.2,98.6L194.2,98.6z"/>
<path class="st0" d="M255.9,154.5H246v-31.7c0-6,0-8.9-0.8-11.9c-1.6-6-7.7-7.4-11-7.4c-5.4,0-11.2,2.9-15,9.3v41.6h-9.9V98.6h9.9
	v7.8c2.2-3,7.5-10.1,19.1-10.1c8.1,0,11.7,3.3,12.8,4.2c4.6,4.3,4.7,9.5,4.7,14.7V154.5z"/>
<path class="st0" d="M286.4,137c0,7.1,0,14.2,7.9,14.2c2.9,0,4.8-1,6.7-1.9c0.4,0.8,1.1,1.9,1.5,2.6c-2.1,1.8-5.6,4.8-12.1,4.8
	c-4.3,0-7.5-1.5-9.1-2.6c-4.5-3.2-4.9-7.7-4.9-14.4V105h-7.7v-6.4h7.7V83.8h10v14.8h11.7v6.4h-11.7V137z"/>
<path class="st0" d="M322.6,154.5h-10.1V98.6h10.1v7.7c1.9-2.6,6.3-9,14.3-9c2.9,0,4.3,0.7,5.8,1.3v9c-1.8-0.8-4.8-2.3-8.6-2.3
	c-6.7,0-10.4,5.2-11.5,6.7V154.5z"/>
<path class="st0" d="M404.7,98.6l-24.4,55.3c-6.7,15.2-14,23.7-28.2,23v-3c9.8-3,14.4-8.1,21.7-24.8l-21.7-50.6h11.1l15.8,39l17-39
	H404.7z"/>
<path class="st0" d="M492.4,98.6l-20.7,56.5h-3.4l-14.5-34.4c-0.2-0.7-1.1-2.7-1.8-5.5c-0.5,3.1-2.1,6.9-2.4,7.6l-13.3,32.3h-3.1
	l-20.9-56.5h10.4l11.8,33.4c1.3,3.8,1.4,5.5,1.7,6.8c0.2-1.6,0.4-3.2,1.5-5.9l13.6-34.2h3.2l13.5,32.1c1.9,4.4,2,6.5,2.2,8
	c0.2-1.5,0.4-2.3,1.3-4.9l12.5-35.2L492.4,98.6L492.4,98.6z"/>
<path class="st0" d="M510.1,76.2c3.5,0,5.7,2.9,5.7,5.7c0,5-4.1,6.1-5.9,6.1c-3,0-5.7-2.3-5.7-5.8C504.2,78.9,506.6,76.2,510.1,76.2
	 M515,154.5h-10v-56h10V154.5z"/>
<path class="st0" d="M579,154.5h-10V148c-2.6,3.3-7,8.7-17.2,8.7c-14.5,0-24.2-11.8-24.2-29.1c0-18.8,11.5-31.3,25-31.3
	c9.9,0,14.5,5.8,16.5,8.3V77h10L579,154.5L579,154.5z M569,110.5c-1.7-2.2-5.5-7.1-13.4-7.1c-5.4,0-10.4,2.6-13.6,7.5
	c-3.2,5-3.8,12.2-3.8,15.9c0,6.9,1.5,12.1,3.6,15.5c3,4.6,7.7,7.7,13.7,7.7c6.8,0,11.1-4.2,13.5-6.5L569,110.5L569,110.5z"/>
<path class="st0" d="M602,126.6c0.2,3.2,0.5,9.6,4.8,15.4c5.6,7.2,13.5,7.2,15.2,7.2c11.8,0,17.5-8.3,19.4-11.4
	c0.8,0.3,2,0.9,2.7,1.1c-1.1,4-5.4,17.9-24.6,17.9c-14.8,0-28-10-28-30c0-19.4,12.8-30.5,27.9-30.5c7.1,0,13.1,2.4,17.5,6.4
	c8.7,8,8.3,20,8.2,23.9L602,126.6L602,126.6z M635.3,120.6c-0.8-14-10.6-17.3-16.1-17.3c-6.7,0-15.6,4.5-17.1,17.3H635.3z"/>
</svg>
